<svg width="62" height="61" viewBox="0 0 62 61" fill="none" xmlns="http://www.w3.org/2000/svg">
<g clip-path="url(#clip0_2_2)">
<path d="M0.874268 32.9661C0.874268 31.3571 0.874268 29.7497 0.874268 28.1407C1.0171 28.0826 0.985711 27.9507 0.996698 27.8409C1.1207 26.5929 1.31847 25.356 1.57432 24.1269C4.05746 12.1812 14.3793 2.52414 26.4779 0.817831C27.1623 0.722077 27.8733 0.76289 28.5278 0.485046C30.1367 0.485046 31.744 0.485046 33.3529 0.485046C34.1534 0.734635 34.9962 0.706379 35.8124 0.857074C45.9946 2.73762 53.433 8.30548 58.1277 17.523C58.9879 19.212 59.6801 20.9827 60.0694 22.8538C59.8951 22.7 59.7099 22.554 59.5451 22.3892C56.5267 19.3737 53.5099 16.3567 50.4931 13.3396C50.3958 13.2423 50.3016 13.1434 50.2012 13.0508C49.8794 12.7557 50.005 13.156 49.9218 13.2329C49.8904 13.1026 49.859 12.9707 49.8276 12.8405C49.7899 12.7196 49.6863 12.7274 49.5921 12.7243C47.0258 12.6458 44.4877 12.8734 41.9779 13.4244C41.7111 13.4825 41.6452 13.6316 41.5808 13.8514C41.2653 14.936 40.9388 16.0176 40.6155 17.1007C40.1744 16.6063 39.8464 15.9862 39.1385 15.7931C39.071 15.4478 38.6849 15.3709 38.5436 15.1009C38.2579 14.5577 37.8938 14.6111 37.3899 14.812C33.5914 16.3315 30.2466 18.5292 27.3349 21.4018C26.9629 21.7675 26.9692 21.9496 27.3412 22.3044C28.5027 23.4111 29.6219 24.5617 30.8776 25.8143C28.9108 25.3324 27.1105 24.9023 25.3195 24.4392C24.9334 24.3403 24.7199 24.4157 24.4908 24.7391C23.7311 25.8112 23.0357 26.9194 22.3781 28.0575C22.1442 28.4625 22.1332 28.7074 22.5507 28.9271C22.5868 29.1626 22.7846 29.2803 22.9321 29.4326C23.5427 30.0652 24.1596 30.6931 24.7749 31.3225C23.5867 31.3963 22.3985 31.4732 21.2087 31.5454C20.9764 31.5596 20.7614 31.5329 20.6499 31.8374C19.5355 34.9047 18.8433 38.052 18.7742 41.3249C18.2892 42.0077 17.5844 42.4865 17.0743 43.1474C16.2409 43.9699 15.4042 44.7893 14.5755 45.6166C13.4673 46.7201 13.5803 47.8582 14.8753 48.7152C14.9522 48.9523 15.1562 49.0857 15.3195 49.2489C18.206 52.1404 21.0973 55.0271 23.9838 57.9186C24.7984 58.7349 25.6036 59.5605 26.412 60.3815C20.0174 59.3926 14.5017 56.622 9.89802 52.0917C5.1248 47.3919 2.22885 41.7095 1.20389 35.0805C1.09401 34.3757 1.13012 33.6473 0.874268 32.9661Z" fill="#016A37" style="fill:#016A37;fill:color(display-p3 0.0039 0.4157 0.2157);fill-opacity:1;"/>
<path d="M49.9218 13.2297C50.005 13.1528 49.8794 12.7541 50.2012 13.0477C50.3016 13.1403 50.3958 13.2407 50.4931 13.3365C53.5099 16.3535 56.5267 19.3721 59.5451 22.386C59.7099 22.5508 59.8936 22.6968 60.0694 22.8507C60.468 23.8145 60.5638 24.8505 60.771 25.8599C60.9342 26.6526 60.8934 27.4751 61.1257 28.2568C61.1257 29.8658 61.1257 31.4732 61.1257 33.0822C61.0096 33.1246 61.0143 33.2266 61.008 33.3224C60.9578 34.1826 60.8259 35.0318 60.669 35.8795C59.1825 43.915 55.1015 50.3242 48.517 55.1245C44.6337 57.9563 40.2827 59.6987 35.5205 60.4161C34.7985 60.5244 34.0545 60.4961 33.3529 60.7378C31.744 60.7378 30.1367 60.7378 28.5278 60.7378C28.4352 60.5511 28.2594 60.6358 28.1182 60.6186C27.5468 60.5511 26.9692 60.5259 26.4104 60.3737C25.6021 59.5527 24.7969 58.727 23.9822 57.9108C21.0957 55.0193 18.2045 52.1326 15.3179 49.2411C15.1547 49.0778 14.9491 48.9444 14.8737 48.7074C15.5031 48.8 16.1326 48.8502 16.6333 48.3511C17.5876 47.4014 18.5294 46.4391 19.4758 45.4816C20.1194 45.0012 20.5683 44.3106 21.237 43.8553C24.078 43.7329 26.8531 43.2431 29.5575 42.3656C31.1067 41.8618 31.0848 41.857 31.124 40.2135C31.1538 39.0064 31.2464 37.8024 31.3124 36.5702C31.5415 36.6612 31.587 36.8229 31.6687 36.9485C32.3593 38.0143 33.0578 39.0755 33.7249 40.1555C33.9148 40.4631 34.0529 40.4788 34.3606 40.3061C35.2129 39.8289 36.051 39.3313 36.8625 38.7898C38.3144 37.8213 38.3066 37.8228 37.8812 36.1479C37.5265 34.7556 37.1937 33.3601 36.8139 31.8139C37.0681 32.0493 37.2126 32.1749 37.3475 32.3083C38.3474 33.3051 39.3614 34.2878 40.333 35.3128C40.6626 35.6613 40.8305 35.6032 41.1366 35.2987C43.9996 32.4433 46.1767 29.1359 47.7023 25.3952C48.0837 24.4581 48.079 24.4628 47.2675 23.8176C46.5612 23.2557 45.8643 22.6827 45.1172 22.0784C46.3399 21.7236 47.4543 21.3814 48.5813 21.08C48.9941 20.9701 49.1621 20.7441 49.2453 20.3375C49.7256 17.9923 49.9061 15.6205 49.9218 13.2297Z" fill="#064221" style="fill:#064221;fill:color(display-p3 0.0235 0.2588 0.1294);fill-opacity:1;"/>
<path d="M49.9218 13.2297C49.9061 15.6205 49.724 17.9923 49.2421 20.3391C49.1589 20.7441 48.991 20.9701 48.5782 21.0816C47.4528 21.383 46.3368 21.7236 45.114 22.0799C45.8612 22.6843 46.5581 23.2588 47.2644 23.8192C48.0759 24.4644 48.0822 24.4596 47.6992 25.3968C46.1735 29.1375 43.9965 32.4449 41.1335 35.3003C40.829 35.6048 40.661 35.6629 40.3298 35.3144C39.3598 34.2893 38.3443 33.3083 37.3444 32.3099C37.2094 32.1765 37.0666 32.0509 36.8107 31.8154C37.1906 33.3601 37.5249 34.7571 37.8781 36.1495C38.3034 37.8244 38.3113 37.8213 36.8594 38.7913C36.0479 39.3329 35.2097 39.8321 34.3574 40.3077C34.0513 40.4788 33.9116 40.4631 33.7217 40.157C33.0546 39.077 32.3562 38.0159 31.6655 36.95C31.5839 36.8245 31.5384 36.6628 31.3092 36.5717C31.2433 37.804 31.1491 39.0095 31.1209 40.2151C31.0816 41.8586 31.1036 41.8649 29.5544 42.3672C26.8499 43.2447 24.0748 43.7345 21.2338 43.8569C21.2888 43.5822 21.5242 43.4441 21.7 43.2682C29.129 35.834 36.5596 28.3997 43.9965 20.9733C44.4391 20.5306 44.7044 20.055 44.6526 19.4129C44.6243 19.0692 44.5992 18.6862 44.2759 18.548C43.9808 18.4209 43.8222 18.7913 43.6402 18.9734C35.3714 27.2334 27.1089 35.498 18.8449 43.7611C18.6659 43.9401 18.4666 44.1002 18.2767 44.2682C17.8733 43.893 17.4714 43.5178 17.0681 43.1427C17.5782 42.4834 18.2829 42.003 18.768 41.3202C18.9422 41.1632 19.1227 41.0125 19.2891 40.8477C26.638 33.4998 33.9854 26.1518 41.3344 18.8023C41.4584 18.6783 41.573 18.537 41.7111 18.4319C42.2605 18.0127 42.8867 17.6611 43.5491 18.0174C44.1848 18.3596 44.516 18.1132 44.9398 17.6831C46.5487 16.0506 48.1921 14.4494 49.8213 12.8373C49.859 12.9676 49.8904 13.0995 49.9218 13.2297Z" fill="#E8EBF2" style="fill:#E8EBF2;fill:color(display-p3 0.9098 0.9216 0.9490);fill-opacity:1;"/>
<path d="M49.8276 12.8373C48.1968 14.4494 46.5549 16.0506 44.9461 17.6831C44.5223 18.1132 44.1911 18.3596 43.5554 18.0174C42.893 17.6611 42.2667 18.0127 41.7174 18.4318C41.5777 18.5386 41.4647 18.6783 41.3407 18.8023C33.9933 26.1502 26.6443 33.4998 19.2953 40.8477C19.1305 41.0125 18.9485 41.1632 18.7742 41.3202C18.8433 38.0473 19.5355 34.8984 20.6499 31.8327C20.7598 31.5297 20.9764 31.5549 21.2087 31.5407C22.3969 31.4685 23.5867 31.3932 24.7749 31.3178C25.2081 31.3178 25.6429 31.3178 26.0777 31.3178C26.0855 31.2707 26.0934 31.2221 26.1028 31.175C24.9193 30.4246 23.7358 29.6743 22.5539 28.9224C22.1364 28.7026 22.1473 28.4578 22.3812 28.0528C23.0389 26.9147 23.7342 25.8065 24.4939 24.7343C24.7231 24.411 24.9381 24.3356 25.3227 24.4345C27.1136 24.8976 28.914 25.3261 30.8807 25.8096C29.625 24.557 28.5059 23.4063 27.3444 22.2997C26.9724 21.9449 26.9661 21.7644 27.3381 21.3971C30.2513 18.5245 33.5946 16.3268 37.3931 14.8073C37.8953 14.6064 38.2595 14.5515 38.5467 15.0962C38.6896 15.3661 39.0741 15.4431 39.1416 15.7884C39.5215 16.2703 39.9045 16.7507 40.2796 17.2373C40.5763 17.6203 40.5527 17.2577 40.6171 17.0976C40.9404 16.0145 41.2669 14.9329 41.5824 13.8482C41.6467 13.6285 41.7127 13.4793 41.9795 13.4212C44.4893 12.8703 47.0274 12.6427 49.5937 12.7211C49.6863 12.7243 49.7899 12.7164 49.8276 12.8373Z" fill="#FFFEFE" style="fill:#FFFEFE;fill:color(display-p3 1.0000 0.9961 0.9961);fill-opacity:1;"/>
<path d="M17.0727 43.1411C17.4761 43.5163 17.8779 43.8914 18.2813 44.2666C18.68 44.6716 19.0771 45.0766 19.4758 45.4831C18.5293 46.4407 17.5876 47.4029 16.6332 48.3526C16.1325 48.8518 15.5031 48.8016 14.8737 48.7089C13.5787 47.8503 13.4657 46.7138 14.5739 45.6103C15.4026 44.7846 16.2393 43.9636 17.0727 43.1411Z" fill="#1B1D20" style="fill:#1B1D20;fill:color(display-p3 0.1059 0.1137 0.1255);fill-opacity:1;"/>
<path d="M22.5491 28.9224C23.7326 29.6728 24.9161 30.4231 26.098 31.175C26.0902 31.2221 26.0823 31.2708 26.0729 31.3178C25.6381 31.3178 25.2049 31.3178 24.7701 31.3178C24.1549 30.6884 23.5396 30.0605 22.9274 29.4279C22.783 29.2756 22.5868 29.1579 22.5491 28.9224Z" fill="#064221" style="fill:#064221;fill:color(display-p3 0.0235 0.2588 0.1294);fill-opacity:1;"/>
<path d="M40.6155 17.096C40.5495 17.2561 40.5731 17.6187 40.278 17.2357C39.9028 16.7507 39.5199 16.2703 39.14 15.7868C39.8448 15.9815 40.1744 16.6031 40.6155 17.096Z" fill="#064221" style="fill:#064221;fill:color(display-p3 0.0235 0.2588 0.1294);fill-opacity:1;"/>
<path d="M19.4774 45.4831C19.0787 45.0781 18.6816 44.6732 18.2829 44.2666C18.4728 44.0986 18.6706 43.9385 18.8511 43.7596C27.1167 35.4965 35.3792 27.2318 43.6464 18.9718C43.8285 18.7898 43.987 18.4193 44.2821 18.5464C44.6039 18.6846 44.6305 19.0676 44.6588 19.4114C44.7106 20.0534 44.4453 20.5306 44.0027 20.9717C36.5658 28.3981 29.1353 35.8324 21.7062 43.2667C21.5304 43.4425 21.295 43.5806 21.2401 43.8553C20.5698 44.3121 20.1209 45.0028 19.4774 45.4831Z" fill="#CED2E1" style="fill:#CED2E1;fill:color(display-p3 0.8078 0.8235 0.8824);fill-opacity:1;"/>
</g>
<defs>
<clipPath id="clip0_2_2">
<rect width="62" height="61" fill="white" style="fill:white;fill-opacity:1;"/>
</clipPath>
</defs>
</svg>
